<?xml version="1.0" encoding="utf-8"?>
<!-- Generator: Adobe Illustrator 16.0.0, SVG Export Plug-In . SVG Version: 6.00 Build 0)  -->
<!DOCTYPE svg PUBLIC "-//W3C//DTD SVG 1.1//EN" "http://www.w3.org/Graphics/SVG/1.1/DTD/svg11.dtd">
<svg version="1.1" id="Layer_1" xmlns="http://www.w3.org/2000/svg" xmlns:xlink="http://www.w3.org/1999/xlink" x="0px" y="0px"
	 width="155.037px" height="51.727px" viewBox="0 0 155.037 51.727" enable-background="new 0 0 155.037 51.727"
	 xml:space="preserve">
<g>
	<path d="M53.638,22.853V4.4h3.913v18.453H53.638z"/>
	<path d="M78.565,22.853h-4.973L65.565,8.893h-0.114c0.16,2.465,0.24,4.224,0.24,5.276v8.684h-3.496V4.4h4.935l8.015,13.82h0.088
		c-0.126-2.398-0.189-4.093-0.189-5.086V4.4h3.521V22.853z"/>
	<path d="M93.737,4.4h3.951l-6.273,18.453h-4.266L80.887,4.4h3.951l3.471,10.98c0.193,0.648,0.393,1.403,0.6,2.266
		c0.207,0.863,0.334,1.462,0.385,1.799c0.092-0.774,0.408-2.129,0.947-4.064L93.737,4.4z"/>
	<path d="M100.01,22.853V4.4h3.912v18.453H100.01z"/>
	<path d="M119.459,17.728c0,1.666-0.6,2.979-1.799,3.938c-1.199,0.959-2.867,1.439-5.004,1.439c-1.969,0-3.711-0.37-5.225-1.111
		v-3.635c1.244,0.555,2.299,0.946,3.162,1.174c0.861,0.227,1.65,0.341,2.365,0.341c0.859,0,1.518-0.164,1.977-0.492
		c0.457-0.329,0.688-0.816,0.688-1.464c0-0.362-0.102-0.684-0.303-0.965c-0.203-0.282-0.5-0.553-0.891-0.814
		c-0.391-0.261-1.189-0.677-2.393-1.25c-1.127-0.53-1.973-1.039-2.535-1.527c-0.564-0.488-1.016-1.056-1.352-1.704
		s-0.504-1.405-0.504-2.272c0-1.632,0.553-2.916,1.658-3.85c1.107-0.934,2.637-1.401,4.588-1.401c0.961,0,1.875,0.113,2.746,0.341
		c0.871,0.227,1.781,0.547,2.732,0.959l-1.262,3.042c-0.984-0.404-1.799-0.686-2.443-0.846c-0.643-0.16-1.275-0.24-1.898-0.24
		c-0.74,0-1.309,0.172-1.705,0.518c-0.395,0.345-0.592,0.795-0.592,1.351c0,0.345,0.08,0.646,0.238,0.902
		c0.16,0.257,0.416,0.505,0.764,0.745c0.35,0.24,1.176,0.671,2.48,1.293c1.725,0.825,2.908,1.652,3.547,2.48
		S119.459,16.525,119.459,17.728z"/>
	<path d="M129.922,22.853h-3.912V7.656h-5.012V4.4h13.936v3.256h-5.012V22.853z"/>
	<path d="M149.071,22.853l-1.338-4.392h-6.729l-1.338,4.392h-4.215l6.512-18.528h4.783l6.539,18.528H149.071z M146.797,15.179
		c-1.236-3.98-1.934-6.231-2.088-6.753c-0.156-0.521-0.268-0.934-0.334-1.237c-0.279,1.077-1.074,3.74-2.387,7.99H146.797z"/>
</g>
<g>
	<path d="M61.934,47.541h-8.518V32.26h8.518v1.578h-6.741v4.923h6.334v1.567h-6.334v5.623h6.741V47.541z"/>
	<path d="M72.083,47.541l-5.184-13.546h-0.084c0.098,1.074,0.146,2.349,0.146,3.826v9.72H65.32V32.26h2.676l4.839,12.604h0.083
		L77.8,32.26h2.655v15.28h-1.777v-9.846c0-1.128,0.049-2.354,0.146-3.679H78.74l-5.226,13.524H72.083z"/>
	<path d="M99.811,47.541l-1.902-4.86h-6.125l-1.881,4.86h-1.797l6.041-15.343h1.494l6.01,15.343H99.811z M97.356,41.082
		l-1.777-4.735c-0.23-0.599-0.467-1.334-0.711-2.205c-0.154,0.67-0.373,1.404-0.658,2.205l-1.799,4.735H97.356z"/>
	<path d="M105.528,41.186v6.354h-1.777V32.26h4.191c1.875,0,3.26,0.359,4.154,1.076c0.896,0.719,1.344,1.798,1.344,3.24
		c0,2.021-1.023,3.387-3.072,4.098l4.148,6.866h-2.1l-3.701-6.354H105.528z M105.528,39.661h2.436c1.254,0,2.174-0.25,2.76-0.748
		c0.584-0.498,0.877-1.245,0.877-2.242c0-1.01-0.297-1.738-0.893-2.184c-0.596-0.446-1.553-0.67-2.869-0.67h-2.311V39.661z"/>
	<path d="M128.522,32.26v9.887c0,1.742-0.525,3.111-1.578,4.107c-1.053,0.997-2.498,1.495-4.338,1.495
		c-1.838,0-3.262-0.501-4.27-1.505c-1.006-1.004-1.51-2.383-1.51-4.139V32.26h1.777v9.971c0,1.275,0.348,2.254,1.045,2.938
		c0.697,0.683,1.721,1.023,3.072,1.023c1.289,0,2.283-0.343,2.979-1.029c0.697-0.686,1.045-1.67,1.045-2.953V32.26H128.522z"/>
	<path d="M130.34,51.565c-0.654,0-1.17-0.095-1.547-0.283v-1.516c0.494,0.141,1.01,0.209,1.547,0.209
		c0.689,0,1.215-0.209,1.572-0.627c0.359-0.418,0.539-1.021,0.539-1.808V32.26h1.777v15.134c0,1.323-0.336,2.351-1.004,3.078
		S131.594,51.565,130.34,51.565z"/>
	<path d="M147.889,47.541l-1.902-4.86h-6.125l-1.881,4.86h-1.799l6.041-15.343h1.496l6.008,15.343H147.889z M145.432,41.082
		l-1.777-4.735c-0.229-0.599-0.467-1.334-0.709-2.205c-0.154,0.67-0.373,1.404-0.66,2.205l-1.797,4.735H145.432z M141.68,30.776
		c0.334-0.432,0.695-0.955,1.082-1.567c0.387-0.613,0.691-1.146,0.914-1.599h2.111v0.219c-0.307,0.453-0.764,1.01-1.369,1.672
		s-1.133,1.175-1.578,1.537h-1.16V30.776z"/>
</g>
<polygon fill="#E52520" points="25.028,40.149 25.028,23.314 25.028,40.572 12.374,40.572 12.374,10.995 25.415,10.995 
	25.415,13.929 32.422,7.502 38.898,13.44 38.898,0 0.001,0 0.001,51.727 38.512,51.727 38.512,40.149 "/>
<polygon fill="#AE0F0A" points="32.422,14.887 39.939,22.666 47.457,30.058 32.422,30.444 17.388,30.058 24.905,22.666 "/>
<rect x="25.028" y="29.848" fill="#AE0F0A" width="14.788" height="21.879"/>
</svg>
